<?xml version="1.0" encoding="utf-8"?>
<!-- Generator: Adobe Illustrator 17.0.0, SVG Export Plug-In . SVG Version: 6.00 Build 0)  -->
<!DOCTYPE svg PUBLIC "-//W3C//DTD SVG 1.1//EN" "http://www.w3.org/Graphics/SVG/1.1/DTD/svg11.dtd">
<svg version="1.1" id="Camada_1" xmlns="http://www.w3.org/2000/svg" xmlns:xlink="http://www.w3.org/1999/xlink" x="0px" y="0px"
	 width="133.594px" height="25.488px" viewBox="0 0 133.594 25.488" enable-background="new 0 0 133.594 25.488"
	 xml:space="preserve">
<g>
	<path fill="#007FFF" d="M34.963,19.446h-2.601V6.451h5.201c0.477,0,0.936,0.062,1.377,0.186c0.441,0.124,0.853,0.299,1.237,0.526
		s0.734,0.498,1.051,0.816c0.317,0.317,0.589,0.669,0.816,1.056s0.402,0.8,0.526,1.241s0.186,0.9,0.186,1.377
		c0,0.713-0.136,1.385-0.408,2.016s-0.643,1.183-1.115,1.654c-0.471,0.471-1.022,0.843-1.654,1.115
		c-0.631,0.272-1.303,0.408-2.016,0.408h-2.601v2.6C34.962,19.446,34.963,19.446,34.963,19.446z M34.963,9.052v5.201h2.601
		c0.356,0,0.692-0.068,1.006-0.204s0.589-0.322,0.825-0.557c0.236-0.236,0.421-0.512,0.557-0.829
		c0.136-0.317,0.204-0.654,0.204-1.01s-0.068-0.693-0.204-1.01c-0.136-0.317-0.322-0.594-0.557-0.829
		c-0.236-0.236-0.51-0.421-0.825-0.557s-0.649-0.204-1.006-0.204L34.963,9.052L34.963,9.052z"/>
	<path fill="#007FFF" d="M53.186,19.446h-8.908V6.451h8.908v2.601h-6.307v2.601h4.268v2.601h-4.268v2.592h6.307V19.446z"/>
	<path fill="#007FFF" d="M65.03,18.132c-0.604,0.513-1.278,0.908-2.021,1.183s-1.516,0.412-2.32,0.412
		c-0.616,0-1.21-0.08-1.781-0.24s-1.104-0.387-1.599-0.68s-0.948-0.643-1.359-1.051s-0.761-0.861-1.051-1.359
		c-0.29-0.498-0.515-1.035-0.675-1.608c-0.16-0.574-0.24-1.169-0.24-1.785s0.08-1.208,0.24-1.776s0.385-1.101,0.675-1.599
		s0.64-0.951,1.051-1.359s0.864-0.757,1.359-1.047c0.495-0.29,1.028-0.515,1.599-0.675c0.571-0.16,1.164-0.24,1.781-0.24
		c0.803,0,1.577,0.137,2.32,0.412s1.417,0.669,2.021,1.183l-1.359,2.265c-0.393-0.399-0.846-0.711-1.359-0.938
		c-0.513-0.227-1.054-0.34-1.622-0.34s-1.101,0.109-1.599,0.326c-0.498,0.217-0.935,0.512-1.309,0.884
		c-0.375,0.372-0.671,0.806-0.888,1.305c-0.217,0.498-0.326,1.032-0.326,1.599c0,0.574,0.109,1.112,0.326,1.613
		c0.217,0.501,0.513,0.939,0.888,1.314c0.375,0.375,0.811,0.671,1.309,0.888c0.498,0.217,1.032,0.326,1.599,0.326
		c0.326,0,0.643-0.039,0.951-0.118s0.601-0.187,0.879-0.326v-3.697h2.51V18.132z"/>
	<path fill="#007FFF" d="M77.281,19.446H74.68v-2.601h-5.201v2.601h-2.592v-7.793c0-0.719,0.136-1.394,0.408-2.025
		c0.272-0.631,0.642-1.183,1.11-1.654c0.468-0.471,1.018-0.843,1.649-1.115c0.631-0.272,1.306-0.408,2.025-0.408
		s1.394,0.136,2.025,0.408s1.183,0.643,1.654,1.115c0.471,0.471,0.843,1.022,1.115,1.654c0.272,0.631,0.408,1.306,0.408,2.025
		V19.446z M74.68,14.254v-2.601c0-0.356-0.068-0.693-0.204-1.01s-0.322-0.594-0.557-0.829c-0.236-0.236-0.512-0.421-0.829-0.557
		s-0.654-0.204-1.01-0.204s-0.693,0.068-1.01,0.204c-0.317,0.136-0.594,0.322-0.829,0.557c-0.236,0.236-0.421,0.512-0.557,0.829
		c-0.136,0.317-0.204,0.654-0.204,1.01v2.601H74.68z"/>
	<path fill="#007FFF" d="M89.632,19.446h-3.153l-2.501-4.196l-2.51,4.196h-3.135l3.987-6.497l-3.987-6.497h3.135l2.51,4.196
		l2.501-4.196h3.153l-3.987,6.497L89.632,19.446z"/>
	<path fill="#007FFF" d="M93.438,19.446h-2.601V6.451h5.201c0.477,0,0.936,0.062,1.377,0.186s0.853,0.299,1.237,0.526
		s0.734,0.498,1.051,0.816c0.317,0.317,0.589,0.669,0.816,1.056c0.227,0.387,0.402,0.8,0.526,1.241s0.186,0.9,0.186,1.377
		c0,0.713-0.136,1.385-0.408,2.016c-0.272,0.631-0.643,1.183-1.115,1.654c-0.471,0.471-1.022,0.843-1.654,1.115
		c-0.631,0.272-1.303,0.408-2.016,0.408h-2.601L93.438,19.446L93.438,19.446z M93.438,9.052v5.201h2.601
		c0.356,0,0.692-0.068,1.006-0.204c0.314-0.136,0.589-0.322,0.825-0.557c0.236-0.236,0.421-0.512,0.557-0.829
		c0.136-0.317,0.204-0.654,0.204-1.01s-0.068-0.693-0.204-1.01s-0.322-0.594-0.557-0.829c-0.236-0.236-0.51-0.421-0.825-0.557
		c-0.314-0.136-0.649-0.204-1.006-0.204L93.438,9.052L93.438,9.052z"/>
</g>
</svg>
